<svg xmlns="http://www.w3.org/2000/svg" style="display: none" aria-hidden="true">
  <!-- #region MARK: Header
  -->
  <symbol id="chevron-right-mod" viewBox="0 0 24 24">
    <title>Plex</title>
    <path d="M4,0 L12,12 L4,24 L12.5,24 L20.5,12 L12.5,0 Z" />
  </symbol>

  <symbol id="clock-star-four-points-outline" viewBox="0 0 24 24">
    <title>Automations</title>
    <path
      d="M12 20C12.4 20 12.7 20 13.1 19.9C13.2 20.6 13.4 21.3 13.7 21.8C13.2 21.9 12.6 22 12 22C6.5 22 2 17.5 2 12C2 6.5 6.5 2 12 2C17.5 2 22 6.5 22 12C22 12.5 21.92 12.97 21.84 13.5
         L21.8 13.7C21.2 13.4 20.6 13.2 19.9 13.1C20 12.7 20 12.4 20 12C20 7.6 16.4 4 12 4C7.6 4 4 7.6 4 12C4 16.4 7.6 20 12 20M12.5 12.3L15.6 14.1C15.2 14.4 14.8 14.7 14.5 15.1L11 13
         V7H12.5V12.3M17.74 17.75L19 15L20.25 17.75L23 19L20.25 20.26L19 23L17.74 20.26L15 19L17.74 17.75Z"
    />
  </symbol>

  <symbol id="database-refresh-outline" viewBox="0 0 24 24">
    <title>Shoko: VFS</title>
    <path
      d="M12 16C12.41 16 12.81 15.97 13.21 15.94C13.4 15.18 13.72 14.46 14.16 13.83C13.47 13.94 12.74 14 12 14C9.58 14 7.3 13.4 6 12.45V9.64C7.47 10.47 9.61 11 12 11S16.53 10.47 18 9.64V11.19
         C18.5 11.07 19 11 19.55 11C19.7 11 19.85 11 20 11.03V7C20 4.79 16.42 3 12 3S4 4.79 4 7V17C4 19.21 7.59 21 12 21C12.66 21 13.31 20.96 13.92 20.88C13.57 20.29 13.31 19.64 13.16 18.94
         C12.79 19 12.41 19 12 19C8.13 19 6 17.5 6 17V14.77C7.61 15.55 9.72 16 12 16M12 5C15.87 5 18 6.5 18 7S15.87 9 12 9 6 7.5 6 7 8.13 5 12 5M23 17.5C23 18.32 22.75 19.08 22.33 19.71
         L21.24 18.62C21.41 18.28 21.5 17.9 21.5 17.5C21.5 16.12 20.38 15 19 15V16.5L16.75 14.25L19 12V13.5C21.21 13.5 23 15.29 23 17.5M19 18.5L21.25 20.75L19 23V21.5C16.79 21.5 15 19.71
         15 17.5C15 16.68 15.25 15.92 15.67 15.29L16.76 16.38C16.59 16.72 16.5 17.1 16.5 17.5C16.5 18.88 17.62 20 19 20V18.5Z"
    />
  </symbol>

  <symbol id="auto-fix" viewBox="0 0 24 24">
    <title>Shoko: Automation</title>
    <path
      d="M7.5,5.6L5,7L6.4,4.5L5,2L7.5,3.4L10,2L8.6,4.5L10,7L7.5,5.6M19.5,15.4L22,14L20.6,16.5L22,19L19.5,17.6L17,19L18.4,16.5L17,14L19.5,15.4M22,2L20.6,4.5L22,7L19.5,5.6L17,7L18.4,4.5
         L17,2L19.5,3.4L22,2M13.34,12.78L15.78,10.34L13.66,8.22L11.22,10.66L13.34,12.78M14.37,7.29L16.71,9.63C17.1,10 17.1,10.65 16.71,11.04L5.04,22.71C4.65,23.1 4,23.1 3.63,22.71
         L1.29,20.37C0.9,20 0.9,19.35 1.29,18.96L12.96,7.29C13.35,6.9 14,6.9 14.37,7.29Z"
    />
  </symbol>

  <symbol id="animethemes" viewBox="0 0 160 86.6">
    <title>AnimeThemes</title>
    <polygon points="56.25 32.48 56.25 75.78 75 86.6 75 0 0 43.3 18.75 54.13 56.25 32.48"></polygon>
    <polygon points="103.75 32.48 141.25 54.13 160 43.3 85 0 85 86.6 103.75 75.78 103.75 32.48"></polygon>
  </symbol>

  <symbol id="cog-outline" viewBox="0 0 24 24">
    <title>Provider Settings</title>
    <path
      d="M12,8A4,4 0 0,1 16,12A4,4 0 0,1 12,16A4,4 0 0,1 8,12A4,4 0 0,1 12,8M12,10A2,2 0 0,0 10,12A2,2 0 0,0 12,14A2,2 0 0,0 14,12A2,2 0 0,0 12,10M10,22C9.75,22 9.54,21.82 9.5,21.58
         L9.13,18.93C8.5,18.68 7.96,18.34 7.44,17.94L4.95,18.95C4.73,19.03 4.46,18.95 4.34,18.73L2.34,15.27C2.21,15.05 2.27,14.78 2.46,14.63L4.57,12.97L4.5,12L4.57,11L2.46,9.37
         C2.27,9.22 2.21,8.95 2.34,8.73L4.34,5.27C4.46,5.05 4.73,4.96 4.95,5.05L7.44,6.05C7.96,5.66 8.5,5.32 9.13,5.07L9.5,2.42C9.54,2.18 9.75,2 10,2H14C14.25,2 14.46,2.18 14.5,2.42
         L14.87,5.07C15.5,5.32 16.04,5.66 16.56,6.05L19.05,5.05C19.27,4.96 19.54,5.05 19.66,5.27L21.66,8.73C21.79,8.95 21.73,9.22 21.54,9.37L19.43,11L19.5,12L19.43,13L21.54,14.63
         C21.73,14.78 21.79,15.05 21.66,15.27L19.66,18.73C19.54,18.95 19.27,19.04 19.05,18.95L16.56,17.95C16.04,18.34 15.5,18.68 14.87,18.93L14.5,21.58C14.46,21.82 14.25,22 14,22H10
         M11.25,4L10.88,6.61C9.68,6.86 8.62,7.5 7.85,8.39L5.44,7.35L4.69,8.65L6.8,10.2C6.4,11.37 6.4,12.64 6.8,13.8L4.68,15.36L5.43,16.66L7.86,15.62C8.63,16.5 9.68,17.14 10.87,17.38
         L11.24,20H12.76L13.13,17.39C14.32,17.14 15.37,16.5 16.14,15.62L18.57,16.66L19.32,15.36L17.2,13.81C17.6,12.64 17.6,11.37 17.2,10.2L19.31,8.65L18.56,7.35L16.15,8.39
         C15.38,7.5 14.32,6.86 13.12,6.62L12.75,4H11.25Z"
    />
  </symbol>

  <symbol id="text-box-outline" viewBox="0 0 24 24">
    <title>Task Logs</title>
    <path d="M5,3C3.89,3 3,3.89 3,5V19C3,20.11 3.89,21 5,21H19C20.11,21 21,20.11 21,19V5C21,3.89 20.11,3 19,3H5M5,5H19V19H5V5M7,7V9H17V7H7M7,11V13H17V11H7M7,15V17H14V15H7Z" />
  </symbol>
  <!-- #endregion -->

  <!-- #region MARK: Search
  -->
  <symbol id="magnify" viewBox="0 0 24 24">
    <title>Filter</title>
    <path
      d="M9.5,3A6.5,6.5 0 0,1 16,9.5C16,11.11 15.41,12.59 14.44,13.73L14.71,14H15.5L20.5,19L19,20.5L14,15.5V14.71L13.73,14.44C12.59,15.41
         11.11,16 9.5,16A6.5,6.5 0 0,1 3,9.5 A6.5,6.5 0 0,1 9.5,3M9.5,5C7,5 5,7 5,9.5C5,12 7,14 9.5,14C12,14 14,12 14,9.5C14,7 12,5 9.5,5Z"
    />
  </symbol>

  <symbol id="close" viewBox="0 0 24 24">
    <title>Clear</title>
    <path d="M19,6.41L17.59,5L12,10.59L6.41,5L5,6.41L10.59,12L5,17.59L6.41,19L12,13.41L17.59,19L19,17.59L13.41,12L19,6.41Z" />
  </symbol>
  <!-- #endregion -->

  <!-- #region MARK: Controls
  -->
  <symbol id="plex" viewBox="0 0 24 24">
    <title>Open Plex Web App</title>
    <path d="M4,2C2.89,2 2,2.89 2,4V20C2,21.11 2.89,22 4,22H20C21.11,22 22,21.11 22,20V4C22,2.89 21.11,2 20,2H4M8.56,6H12.06L15.5,12L12.06,18H8.56L12,12L8.56,6Z" />
  </symbol>

  <symbol id="refresh" viewBox="0 0 24 24">
    <title>Refresh Plex Libraries</title>
    <path
      d="M17.65,6.35C16.2,4.9 14.21,4 12,4A8,8 0 0,0 4,12A8,8 0 0,0 12,20C15.73,20 18.84,17.45 19.73,14H17.65C16.83,16.33
         14.61,18 12,18A6,6 0 0,1 6,12A6,6 0 0,1 12,6 C13.66,6 15.14,6.69 16.22,7.78L13,11H20V4L17.65,6.35Z"
    />
  </symbol>

  <symbol id="auto-mode" viewBox="0 0 24 24">
    <title>Run Plex Automation Now</title>
    <path
      d="M19.8 5.67C21.05 7.19 21.82 9.04 22 11H19.94C19.74 9.57 19.16 8.22 18.26 7.1L19.8 5.67M13 2.05C14.96 2.24 16.81 3 18.33 4.26L16.9 5.69C15.77 4.8 14.42 4.24 13 4.05V2.05M11 2.06C9.04
         2.26 7.19 3.03 5.67 4.27L7.1 5.69C8.23 4.81 9.58 4.24 11 4.06V2.06M4.26 5.67L5.63 7.06V7.1C4.75 8.23 4.18 9.58 4 11H2C2.21 9.04 3 7.18 4.26 5.67M2 14V19L3.6 17.4C5.38 20.17 8.47 22
         12 22C16.82 22 20.87 18.55 21.8 14H19.75C18.86 17.45 15.72 20 12 20C9.05 20 6.39 18.39 5 16L7 14H2M12 17L13.56 13.58L17 12L13.56 10.44L12 7L10.43 10.44L7 12L10.43 13.58L12 17Z"
    />
  </symbol>

  <symbol id="folder-open" viewBox="0 0 24 24">
    <title>Open VFS Browser</title>
    <path d="M19,20H4C2.89,20 2,19.1 2,18V6C2,4.89 2.89,4 4,4H10L12,6H19A2,2 0 0,1 21,8H21L4,8V18L6.14,10H23.21L20.93,18.5C20.7,19.37 19.92,20 19,20Z" />
  </symbol>

  <symbol id="database-edit-outline" viewBox="0 0 24 24">
    <title>VFS Overrides Editor</title>
    <path
      d="M12 16C12.8 16 13.57 15.93 14.31 15.82L17.22 12.91C15.89 13.59 14 14 12 14C9.58 14 7.3 13.4 6 12.45V9.64C7.47 10.47 9.61 11 12 11S16.53 10.47 18 9.64V12.13L19.39 10.74
         C19.57 10.56 19.78 10.42 20 10.3V7C20 4.79 16.42 3 12 3S4 4.79 4 7V17C4 19.04 7.06 20.72 11 20.97V19.13L11.17 18.96C7.84 18.76 6 17.46 6 17V14.77C7.61 15.55 9.72 16 12 16
         M12 5C15.87 5 18 6.5 18 7S15.87 9 12 9 6 7.5 6 7 8.13 5 12 5M19.13 13.83L21.17 15.87L15.04 22H13V19.96L19.13 13.83M22.85 14.19L21.87 15.17L19.83 13.13L20.81 12.15
         C21 11.95 21.33 11.95 21.53 12.15L22.85 13.47C23.05 13.67 23.05 14 22.85 14.19Z"
    />
  </symbol>

  <symbol id="broom" viewBox="0 0 24 24">
    <title>Clean VFS Toggle</title>
    <path
      d="M19.36,2.72L20.78,4.14L15.06,9.85C16.13,11.39 16.28,13.24 15.38,14.44L9.06,8.12C10.26,7.22 12.11,7.37 13.65,8.44M19.36,2.72M5.93,17.57C3.92,15.56
         2.69,13.16 2.35,10.92 L7.23,8.83L14.67,16.27L12.58,21.15C10.34,20.81 7.94,19.58 5.93,17.57Z"
    />
  </symbol>

  <symbol id="relay-api" viewBox="0 0 24 34">
    <title>Relay API</title>
    <path
      d="M0,1V11H2V7H2.8L4,11H6L4.76,6.86C5.5,6.56 6,5.84 6,5V3A2,2 90 0,0 4,1H0M2,3H4V5H2V3Z M7,1V11H13V9H9V7H13V5H9V3H13V1H7ZM14,1V11H20V9H16V1H14Z M23,1A2,2 90 0,0
         21,3V11H23V7H25V11H27V3A2,2 90 0,0 25,1H23M25,3H25V5H23V3Z M28,1L30,7V11H32V7L34,1H32L31,4L30,1H28ZM11,13H9A2,2 90 0,0 7,15V23H9V19H11V23H13V15A2,2 90 0,0
         11,13 M11,17H9V15H11ZM18,13H14V23H16V19H18A2,2 90 0,0 20,17V15A2,2 90 0,0 18,13M18,17H16V15H18Z M24,15V21H25V23H21V21H22V15H21V13H25V15Z"
    />
  </symbol>

  <symbol id="shoko-api" viewBox="0 0 24 34">
    <title>Shoko API</title>
    <path
      d="M2,1A2,2 90 0,0 0,3V5A2,2 90 0,0 2,7H4V9H0V11H4A2,2 90 0,0 6,9V7A2,2 90 0,0 4,5H2V3H6V1H2Z M7,1V11H9V7H11V11H13V1H11V5H9V1H7Z M16,1A2,2 90 0,0 14,3V9A2,2 90 0,0 16,11H18A2,2 90 0,0
         20,9V3A2,2 90 0,0 18,1H16M16,3H18V9H16V3Z M21,1V11H23V7.68L25,11H27L24,6L27,1H25L23,4V1H21Z M30,1A2,2 90 0,0 28,3V9A2,2 90 0,0 30,11H32A2,2 90 0,0 34,9V3A2,2 90 0,0 32,1H30M30,3H32V9H30V3Z
         M11,13H9A2,2 90 0,0 7,15V23H9V19H11V23H13V15A2,2 90 0,0 11,13 M11,17H9V15H11ZM18,13H14V23H16V19H18A2,2 90 0,0 20,17V15A2,2 90 0,0 18,13M18,17H16V15H18ZM24,15V21H25V23H21V21H22V15H21V13H25V15Z"
    />
  </symbol>

  <symbol id="view-dashboard-outline" viewBox="0 0 24 24">
    <title>Shoko Dashboard</title>
    <path d="M19,5V7H15V5H19M9,5V11H5V5H9M19,13V19H15V13H19M9,17V19H5V17H9M21,3H13V9H21V3M11,3H3V13H11V3M21,11H13V21H21V11M11,15H3V21H11V15Z" />
  </symbol>

  <symbol id="movie-open" viewBox="0 0 24 24">
    <title>Open AnimeThemes Player</title>
    <path
      d="M20.84 2.18L16.91 2.96L19.65 6.5L21.62 6.1L20.84 2.18M13.97 3.54L12 3.93L14.75 7.46L16.71 7.07L13.97 3.54M9.07 4.5L7.1 4.91L9.85 8.44L11.81
         8.05L9.07 4.5M4.16 5.5 L3.18 5.69A2 2 0 0 0 1.61 8.04L2 10L6.9 9.03L4.16 5.5M2 10V20C2 21.11 2.9 22 4 22H20C21.11 22 22 21.11 22 20V10H2Z"
    />
  </symbol>

  <symbol id="download" viewBox="0 0 24 24">
    <title>Import Curated Mapping File</title>
    <path d="M5,20H19V18H5M19,9H15V3H9V9H5L12,16L19,9Z" />
  </symbol>

  <symbol id="sitemap" viewBox="0 0 24 24">
    <title>Build Mapping File</title>
    <path d="M9,2V8H11V11H5C3.89,11 3,11.89 3,13V16H1V22H7V16H5V13H11V16H9V22H15V16H13V13H19V16H17V22H23V16H21V13C21,11.89 20.11,11 19,11H13V8H15V2H9Z" />
  </symbol>

  <symbol id="tag-check-outline" viewBox="0 0 24 24">
    <title>Audit Theme.mp3 Files</title>
    <path
      d="M6.5 5C5.67 5 5 5.67 5 6.5S5.67 8 6.5 8 8 7.33 8 6.5 7.33 5 6.5 5M6.5 5C5.67 5 5 5.67 5 6.5S5.67 8 6.5 8 8 7.33 8 6.5 7.33 5 6.5 5M21.41 11.58L12.41 2.58C12.04
         2.21 11.53 2 11 2H4C2.9 2 2 2.9 2 4V11C2 11.53 2.21 12.04 2.59 12.42L3 12.82C3.64 12.44 4.35 12.19 5.08 12.08L4 11V4H11L20 13L13 20L11.92 18.92C11.82 19.66
         11.56 20.36 11.18 21L11.59 21.41C11.96 21.79 12.47 22 13 22C13.53 22 14.04 21.79 14.41 21.41L21.41 14.41C21.79 14.04 22 13.53 22 13C22 12.47 21.79 11.96
         21.41 11.58M6.5 5C5.67 5 5 5.67 5 6.5S5.67 8 6.5 8 8 7.33 8 6.5 7.33 5 6.5 5M8.63 14.27L4.76 18.17L3.41 16.8L2 18.22L4.75 21L10.03 15.68L8.63 14.27"
    />
  </symbol>

  <symbol id="chevron-triple-down" viewBox="0 0 24 24">
    <title>Force Overwrite Toggle</title>
    <path d="M7.41,14.58L12,19.17L16.59,14.58L18,16L12,22L6,16L7.41,14.58M7.41,8.58L12,13.17L16.59,8.58L18,10L12,16L6,10L7.41,8.58M7.41,2.58L12,7.17L16.59,2.58L18,4L12,10L6,4L7.41,2.58Z" />
  </symbol>

  <symbol id="file-tree" viewBox="0 0 24 24">
    <title>Recursive Batch Toggle</title>
    <path d="M3,3H9V7H3V3M15,10H21V14H15V10M15,17H21V21H15V17M13,13H7V18H13V20H7L5,20V9H7V11H13V13Z" />
  </symbol>
  <!-- #endregion -->

  <!-- #region MARK: Checkboxes
  -->
  <symbol id="checkbox-blank-circle-outline" viewBox="0 0 24 24">
    <title>Unchecked</title>
    <path d="M12,20A8,8 0 0,1 4,12A8,8 0 0,1 12,4A8,8 0 0,1 20,12A8,8 0 0,1 12,20M12,2A10,10 0 0,0 2,12A10,10 0 0,0 12,22A10,10 0 0,0 22,12A10,10 0 0,0 12,2Z" />
  </symbol>

  <symbol id="checkbox-marked-circle-outline" viewBox="0 0 24 24">
    <title>Checked</title>
    <path
      d="M20,12A8,8 0 0,1 12,20A8,8 0 0,1 4,12A8,8 0 0,1 12,4C12.76,4 13.5,4.11 14.2,4.31L15.77,2.74C14.61,2.26 13.34,2
         12,2A10,10 0 0,0 2,12A10,10 0 0,0 12,22A10,10 0 0,0 22,12 M7.91,10.08L6.5,11.5L11,16L21,6L19.59,4.58L11,13.17L7.91,10.08Z"
    />
  </symbol>
  <!-- #endregion -->

  <!-- #region MARK: Sync Direction
  -->
  <symbol id="transfer-right" viewBox="0 0 24 24">
    <title>Sync to Shoko</title>
    <path d="M3,8H5V16H3V8M7,8H9V16H7V8M11,8H13V16H11V8M15,19.25V4.75L22.25,12L15,19.25Z" />
  </symbol>

  <symbol id="transfer-left" viewBox="0 0 24 24">
    <title>Sync to Plex</title>
    <path d="M21,16H19V8H21V16M17,16H15V8H17V16M13,16H11V8H13V16M9,5V19L2,12L9,5Z" />
  </symbol>
  <!-- #endregion -->

  <!-- #region MARK: Player
  -->
  <symbol id="play" viewBox="0 0 24 24">
    <title>Play</title>
    <path d="M8,5.14V19.14L19,12.14L8,5.14Z" />
  </symbol>

  <symbol id="skip-next" viewBox="0 0 24 24">
    <title>Play Next</title>
    <path d="M16,18H18V6H16M6,18L14.5,12L6,6V18Z" />
  </symbol>

  <symbol id="sync" viewBox="0 0 24 24">
    <title>Loop Enabled</title>
    <path
      d="M12,18A6,6 0 0,1 6,12C6,11 6.25,10.03 6.7,9.2L5.24,7.74C4.46,8.97 4,10.43 4,12A8,8 0 0,0 12,20V23L16,19L12,15M12,4V1L8,5L12,9V6A6,6
         0 0,1 18,12C18,13 17.75,13.97 17.3,14.8 L18.76,16.26C19.54,15.03 20,13.57 20,12A8,8 0 0,0 12,4Z"
    />
  </symbol>

  <symbol id="shuffle-variant" viewBox="0 0 24 24">
    <title>Shuffle</title>
    <path d="M17,3L22.25,7.5L17,12L22.25,16.5L17,21V18H14.26L11.44,15.18L13.56,13.06L15.5,15H17V12L17,9H15.5L6.5,18H2V15H5.26L14.26,6H17V3M2,6H6.5L9.32,8.82L7.2,10.94L5.26,9H2V6Z" />
  </symbol>

  <symbol id="shuffle-disabled" viewBox="0 0 24 24">
    <title>Next Theme</title>
    <path d="M16,4.5V7H5V9H16V11.5L19.5,8M16,12.5V15H5V17H16V19.5L19.5,16" />
  </symbol>

  <symbol id="sync-off" viewBox="0 0 24 24">
    <title>Once</title>
    <path
      d="M20,4H14V10L16.24,7.76C17.32,8.85 18,10.34 18,12C18,13 17.75,13.94 17.32,14.77L18.78,16.23C19.55,15 20,13.56 20,12C20,9.79 19.09,7.8 17.64,6.36L20,4M2.86,5.41L5.22,7.77
         C4.45,9 4,10.44 4,12C4,14.21 4.91,16.2 6.36,17.64L4,20H10V14L7.76,16.24C6.68,15.15 6,13.66 6,12C6,11 6.25,10.06 6.68,9.23L14.76,17.31C14.5,17.44 14.26,17.56 14,17.65V19.74
         C14.79,19.53 15.54,19.2 16.22,18.78L18.58,21.14L19.85,19.87L4.14,4.14L2.86,5.41M10,6.35V4.26C9.2,4.47 8.45,4.8 7.77,5.22L9.23,6.68C9.5,6.56 9.73,6.44 10,6.35Z"
    />
  </symbol>

  <symbol id="volume-high" viewBox="0 0 24 24">
    <title>Volume High</title>
    <path
      d="M14,3.23V5.29C16.89,6.15 19,8.83 19,12C19,15.17 16.89,17.84 14,18.7V20.77C18,19.86 21,16.28 21,12C21,7.72 18,4.14
         14,3.23M16.5,12C16.5,10.23 15.5,8.71 14,7.97V16 C15.5,15.29 16.5,13.76 16.5,12M3,9V15H7L12,20V4L7,9H3Z"
    />
  </symbol>

  <symbol id="volume-medium" viewBox="0 0 24 24">
    <title>Volume Medium</title>
    <path d="M5,9V15H9L14,20V4L9,9M18.5,12C18.5,10.23 17.5,8.71 16,7.97V16C17.5,15.29 18.5,13.76 18.5,12Z" />
  </symbol>

  <symbol id="volume-low" viewBox="0 0 24 24">
    <title>Volume Low</title>
    <path d="M7,9V15H11L16,20V4L11,9H7Z" />
  </symbol>

  <symbol id="volume-mute" viewBox="0 0 24 24">
    <title>Volume Mute</title>
    <path d="M3,9H7L12,4V20L7,15H3V9M16.59,12L14,9.41L15.41,8L18,10.59L20.59,8L22,9.41L19.41,12L22,14.59L20.59,16L18,13.41L15.41,16L14,14.59L16.59,12Z" />
  </symbol>

  <symbol id="video" viewBox="0 0 24 24">
    <title>Video On</title>
    <path d="M17,10.5V7A1,1 0 0,0 16,6H4A1,1 0 0,0 3,7V17A1,1 0 0,0 4,18H16A1,1 0 0,0 17,17V13.5L21,17.5V6.5L17,10.5Z" />
  </symbol>

  <symbol id="video-off" viewBox="0 0 24 24">
    <title>Video Off</title>
    <path d="M3.27,2L2,3.27L4.73,6H4A1,1 0 0,0 3,7V17A1,1 0 0,0 4,18H16C16.2,18 16.39,17.92 16.54,17.82L19.73,21L21,19.73M21,6.5L17,10.5V7A1,1 0 0,0 16,6H9.82L21,17.18V6.5Z" />
  </symbol>

  <symbol id="close-box" viewBox="0 0 24 24">
    <title>Close Session</title>
    <path
      d="M19,3H16.3H7.7H5A2,2 0 0,0 3,5V7.7V16.4V19A2,2 0 0,0 5,21H7.7H16.4H19A2,2 0 0,0 21,19V16.3V7.7V5A2,2 0 0,0
         19,3M15.6,17L12,13.4L8.4,17L7,15.6L10.6,12L7,8.4L8.4,7L12,10.6L15.6,7L17,8.4L13.4,12L17,15.6L15.6,17Z"
    />
  </symbol>

  <symbol id="fullscreen-mod" viewBox="0 0 24 24">
    <title>Fullscreen</title>
    <path
      d="M19,3H16.3H7.7H5A2,2 0,0 0 3,5V7.7V16.4V19A2,2 0 0,0 5,21H7.7H16.4H19A2,2 0 0,0 21,19 V16.3 V7.7V5A2,2 0 0,0 19,3Z
         M5,5H10V7H7V10H5V5M14,5H19V10H17V7H14V5M17,14H19V19H14V17H17V14M10,17V19H5V14H7V17H10Z"
    />
  </symbol>

  <symbol id="fullscreen-exit-mod" viewBox="0 0 24 24">
    <title>Exit Fullscreen</title>
    <path
      d="M19,3H16.3H7.7H5A2,2 0,0 0 3,5V7.7V16.4V19A2,2 0 0,0 5,21H7.7H16.4H19A2,2 0 0,0 21,19 V16.3 V7.7V5A2,2 0 0,0 19,3Z
         M14,14H19V16H16V19H14V14M5,14H10V19H8V16H5V14M8,5H10V10H5V8H8V5M19,8V10H14V5H16V8H19Z"
    />
  </symbol>
  <!-- #endregion -->

  <!-- #region MARK: Floating Icons
  -->
  <symbol id="discord" viewBox="0 0 24 24">
    <title>discord</title>
    <path
      d="M20.317 4.3698a19.7913 19.7913 0 00-4.8851-1.5152.0741.0741 0 00-.0785.0371c-.211.3753-.4447.8648-.6083 1.2495-1.8447-.2762-3.68-.2762-5.4868 0-.1636-.3933-.4058-.8742-.6177-1.2495
         a.077.077 0 00-.0785-.037 19.7363 19.7363 0 00-4.8852 1.515.0699.0699 0 00-.0321.0277C.5334 9.0458-.319 13.5799.0992 18.0578a.0824.0824 0 00.0312.0561
         c2.0528 1.5076 4.0413 2.4228 5.9929 3.0294a.0777.0777 0 00.0842-.0276c.4616-.6304.8731-1.2952 1.226-1.9942a.076.076 0 00-.0416-.1057c-.6528-.2476-1.2743-.5495-1.8722-.8923
         a.077.077 0 01-.0076-.1277c.1258-.0943.2517-.1923.3718-.2914a.0743.0743 0 01.0776-.0105c3.9278 1.7933 8.18 1.7933 12.0614 0a.0739.0739 0 01.0785.0095
         c.1202.099.246.1981.3728.2924a.077.077 0 01-.0066.1276 12.2986 12.2986 0 01-1.873.8914.0766.0766 0 00-.0407.1067c.3604.698.7719 1.3628 1.225 1.9932a.076.076 0 00.0842.0286
         c1.961-.6067 3.9495-1.5219 6.0023-3.0294a.077.077 0 00.0313-.0552c.5004-5.177-.8382-9.6739-3.5485-13.6604a.061.061 0 00-.0312-.0286zM8.02 15.3312c-1.1825 0-2.1569-1.0857
         -2.1569-2.419 0-1.3332.9555-2.4189 2.157-2.4189 1.2108 0 2.1757 1.0952 2.1568 2.419 0 1.3332-.9555 2.4189-2.1569 2.4189zm7.9748 0c-1.1825 0-2.1569-1.0857-2.1569-2.419
         0-1.3332.9554-2.4189 2.1569-2.4189 1.2108 0 2.1757 1.0952 2.1568 2.419 0 1.3332-.946 2.4189-2.1568 2.4189Z"
    />
  </symbol>

  <symbol id="docs" viewBox="0 0 24 24">
    <title>Shoko Docs</title>
    <path
      d="M19 1L14 6V17L19 12.5V1M21 5V18.5C19.9 18.15 18.7 18 17.5 18C15.8 18 13.35 18.65 12 19.5V6C10.55 4.9 8.45 4.5 6.5 4.5C4.55 4.5 2.45 4.9 1 6V20.65C1 20.9 1.25 21.15 1.5 21.15
         C1.6 21.15 1.65 21.1 1.75 21.1C3.1 20.45 5.05 20 6.5 20C8.45 20 10.55 20.4 12 21.5C13.35 20.65 15.8 20 17.5 20C19.15 20 20.85 20.3 22.25 21.05C22.35 21.1 22.4 21.1 22.5 21.1
         C22.75 21.1 23 20.85 23 20.6V6C22.4 5.55 21.75 5.25 21 5M10 18.41C8.75 18.09 7.5 18 6.5 18C5.44 18 4.18 18.19 3 18.5V7.13C3.91 6.73 5.14 6.5 6.5 6.5C7.86 6.5 9.09 6.73 10 7.13V18.41Z"
    />
  </symbol>

  <symbol id="github" viewBox="0 0 24 24">
    <title>Github</title>
    <path
      d="M12,2A10,10 0 0,0 2,12C2,16.42 4.87,20.17 8.84,21.5C9.34,21.58 9.5,21.27 9.5,21C9.5,20.77 9.5,20.14 9.5,19.31C6.73,19.91 6.14,17.97 6.14,17.97C5.68,16.81 5.03,16.5 5.03,16.5
         C4.12,15.88 5.1,15.9 5.1,15.9C6.1,15.97 6.63,16.93 6.63,16.93C7.5,18.45 8.97,18 9.54,17.76C9.63,17.11 9.89,16.67 10.17,16.42C7.95,16.17 5.62,15.31 5.62,11.5
         C5.62,10.39 6,9.5 6.65,8.79C6.55,8.54 6.2,7.5 6.75,6.15C6.75,6.15 7.59,5.88 9.5,7.17C10.29,6.95 11.15,6.84 12,6.84C12.85,6.84 13.71,6.95 14.5,7.17C16.41,5.88 17.25,6.15 17.25,6.15
         C17.8,7.5 17.45,8.54 17.35,8.79C18,9.5 18.38,10.39 18.38,11.5C18.38,15.32 16.04,16.16 13.81,16.41C14.17,16.72 14.5,17.33 14.5,18.26C14.5,19.6 14.5,20.68 14.5,21
         C14.5,21.27 14.66,21.59 15.17,21.5C19.14,20.16 22,16.42 22,12A10,10 0 0,0 12,2Z"
    />
  </symbol>

  <symbol id="help-box" viewBox="0 0 24 24">
    <title>Help</title>
    <path
      d="M11,18H13V16H11V18M12,6A4,4 0 0,0 8,10H10A2,2 0 0,1 12,8A2,2 0 0,1 14,10C14,12 11,11.75 11,15H13C13,12.75
         16,12.5 16,10A4,4 0 0,0 12,6M5,3H19A2,2 0 0,1 21,5V19A2,2 0 0,1 19,21H5 A2,2 0 0,1 3,19V5A2,2 0 0,1 5,3Z"
    />
  </symbol>
  <!-- #endregion -->

  <!-- #region MARK: Loading spinner
  -->
  <symbol id="loading" viewBox="0 0 24 24">
    <title>Loading</title>
    <path d="M12,4V2A10,10 0 0,0 2,12H4A8,8 0 0,1 12,4Z" />
  </symbol>
  <!-- #endregion -->
</svg>
