<svg xmlns="http://www.w3.org/2000/svg" style="display:none" aria-hidden="true">
  <!--Headers-->
  <symbol id="database-refresh-outline" viewBox="0 0 24 24">
    <title>Shoko: VFS</title>
    <path d="M12 16C12.41 16 12.81 15.97 13.21 15.94C13.4 15.18 13.72 14.46 14.16 13.83C13.47 13.94 12.74 14 12 14C9.58 14 7.3 13.4 6 12.45V9.64C7.47 10.47 9.61 11 12 11S16.53 10.47 18 9.64V11.19C18.5 11.07 19 11 19.55 11C19.7 11 19.85 11 20 11.03V7C20 4.79 16.42 3 12 3S4 4.79 4 7V17C4 19.21 7.59 21 12 21C12.66 21 13.31 20.96 13.92 20.88C13.57 20.29 13.31 19.64 13.16 18.94C12.79 19 12.41 19 12 19C8.13 19 6 17.5 6 17V14.77C7.61 15.55 9.72 16 12 16M12 5C15.87 5 18 6.5 18 7S15.87 9 12 9 6 7.5 6 7 8.13 5 12 5M23 17.5C23 18.32 22.75 19.08 22.33 19.71L21.24 18.62C21.41 18.28 21.5 17.9 21.5 17.5C21.5 16.12 20.38 15 19 15V16.5L16.75 14.25L19 12V13.5C21.21 13.5 23 15.29 23 17.5M19 18.5L21.25 20.75L19 23V21.5C16.79 21.5 15 19.71 15 17.5C15 16.68 15.25 15.92 15.67 15.29L16.76 16.38C16.59 16.72 16.5 17.1 16.5 17.5C16.5 18.88 17.62 20 19 20V18.5Z"/>
  </symbol>

  <symbol id="auto-fix" viewBox="0 0 24 24">
    <title>Shoko: Automation</title>
    <path d="M7.5,5.6L5,7L6.4,4.5L5,2L7.5,3.4L10,2L8.6,4.5L10,7L7.5,5.6M19.5,15.4L22,14L20.6,16.5L22,19L19.5,17.6L17,19L18.4,16.5L17,14L19.5,15.4M22,2L20.6,4.5L22,7L19.5,5.6L17,7L18.4,4.5L17,2L19.5,3.4L22,2M13.34,12.78L15.78,10.34L13.66,8.22L11.22,10.66L13.34,12.78M14.37,7.29L16.71,9.63C17.1,10 17.1,10.65 16.71,11.04L5.04,22.71C4.65,23.1 4,23.1 3.63,22.71L1.29,20.37C0.9,20 0.9,19.35 1.29,18.96L12.96,7.29C13.35,6.9 14,6.9 14.37,7.29Z"/>
  </symbol>

  <symbol id="animethemes" viewBox="0 0 160 86.6">
    <title>AnimeThemes</title>
    <polygon points="56.25 32.48 56.25 75.78 75 86.6 75 0 0 43.3 18.75 54.13 56.25 32.48"></polygon>
    <polygon points="103.75 32.48 141.25 54.13 160 43.3 85 0 85 86.6 103.75 75.78 103.75 32.48"></polygon>
  </symbol> 

  <symbol id="cog-outline" viewBox="0 0 24 24">
    <title>Provider Configuration</title>
    <path d="M12,8A4,4 0 0,1 16,12A4,4 0 0,1 12,16A4,4 0 0,1 8,12A4,4 0 0,1 12,8M12,10A2,2 0 0,0 10,12A2,2 0 0,0 12,14A2,2 0 0,0 14,12A2,2 0 0,0 12,10M10,22C9.75,22 9.54,21.82 9.5,21.58L9.13,18.93C8.5,18.68 7.96,18.34 7.44,17.94L4.95,18.95C4.73,19.03 4.46,18.95 4.34,18.73L2.34,15.27C2.21,15.05 2.27,14.78 2.46,14.63L4.57,12.97L4.5,12L4.57,11L2.46,9.37C2.27,9.22 2.21,8.95 2.34,8.73L4.34,5.27C4.46,5.05 4.73,4.96 4.95,5.05L7.44,6.05C7.96,5.66 8.5,5.32 9.13,5.07L9.5,2.42C9.54,2.18 9.75,2 10,2H14C14.25,2 14.46,2.18 14.5,2.42L14.87,5.07C15.5,5.32 16.04,5.66 16.56,6.05L19.05,5.05C19.27,4.96 19.54,5.05 19.66,5.27L21.66,8.73C21.79,8.95 21.73,9.22 21.54,9.37L19.43,11L19.5,12L19.43,13L21.54,14.63C21.73,14.78 21.79,15.05 21.66,15.27L19.66,18.73C19.54,18.95 19.27,19.04 19.05,18.95L16.56,17.95C16.04,18.34 15.5,18.68 14.87,18.93L14.5,21.58C14.46,21.82 14.25,22 14,22H10M11.25,4L10.88,6.61C9.68,6.86 8.62,7.5 7.85,8.39L5.44,7.35L4.69,8.65L6.8,10.2C6.4,11.37 6.4,12.64 6.8,13.8L4.68,15.36L5.43,16.66L7.86,15.62C8.63,16.5 9.68,17.14 10.87,17.38L11.24,20H12.76L13.13,17.39C14.32,17.14 15.37,16.5 16.14,15.62L18.57,16.66L19.32,15.36L17.2,13.81C17.6,12.64 17.6,11.37 17.2,10.2L19.31,8.65L18.56,7.35L16.15,8.39C15.38,7.5 14.32,6.86 13.12,6.62L12.75,4H11.25Z"/>
  </symbol>

  <!--Controls-->
  <symbol id="refresh" viewBox="0 0 24 24">
    <title>Refresh Libraries</title>
    <path d="M17.65,6.35C16.2,4.9 14.21,4 12,4A8,8 0 0,0 4,12A8,8 0 0,0 12,20C15.73,20 18.84,17.45 19.73,14H17.65C16.83,16.33 14.61,18 12,18A6,6 0 0,1 6,12A6,6 0 0,1 12,6C13.66,6 15.14,6.69 16.22,7.78L13,11H20V4L17.65,6.35Z"/>
  </symbol>

  <symbol id="broom" viewBox="0 0 24 24">
    <title>Clean VFS Toggle</title>
    <path d="M19.36,2.72L20.78,4.14L15.06,9.85C16.13,11.39 16.28,13.24 15.38,14.44L9.06,8.12C10.26,7.22 12.11,7.37 13.65,8.44L19.36,2.72M5.93,17.57C3.92,15.56 2.69,13.16 2.35,10.92L7.23,8.83L14.67,16.27L12.58,21.15C10.34,20.81 7.94,19.58 5.93,17.57Z"/>
  </symbol>

  <symbol id="file-tree" viewBox="0 0 24 24">
    <title>Recursive Batch</title>
    <path d="M3,3H9V7H3V3M15,10H21V14H15V10M15,17H21V21H15V17M13,13H7V18H13V20H7L5,20V9H7V11H13V13Z"/>
  </symbol>

  <symbol id="chevron-triple-down" viewBox="0 0 24 24">
    <title>Force Overwrite</title>
    <path d="M7.41,14.58L12,19.17L16.59,14.58L18,16L12,22L6,16L7.41,14.58M7.41,8.58L12,13.17L16.59,8.58L18,10L12,16L6,10L7.41,8.58M7.41,2.58L12,7.17L16.59,2.58L18,4L12,10L6,4L7.41,2.58Z"/>
  </symbol>

  <!--Checkboxes-->
  <symbol id="checkbox-blank-circle-outline" viewBox="0 0 24 24">
    <title>Unchecked</title>
    <path d="M12,20A8,8 0 0,1 4,12A8,8 0 0,1 12,4A8,8 0 0,1 20,12A8,8 0 0,1 12,20M12,2A10,10 0 0,0 2,12A10,10 0 0,0 12,22A10,10 0 0,0 22,12A10,10 0 0,0 12,2Z"/>
  </symbol>

  <symbol id="checkbox-marked-circle-outline" viewBox="0 0 24 24">
    <title>Checked</title>
    <path d="M20,12A8,8 0 0,1 12,20A8,8 0 0,1 4,12A8,8 0 0,1 12,4C12.76,4 13.5,4.11 14.2,4.31L15.77,2.74C14.61,2.26 13.34,2 12,2A10,10 0 0,0 2,12A10,10 0 0,0 12,22A10,10 0 0,0 22,12M7.91,10.08L6.5,11.5L11,16L21,6L19.59,4.58L11,13.17L7.91,10.08Z"/>
  </symbol>

  <!--Floating Icons-->
  <symbol id="theme-light-dark" viewBox="0 0 24 24">
    <title>Theme Switcher</title>
    <path d="M7.5,2C5.71,3.15 4.5,5.18 4.5,7.5C4.5,9.82 5.71,11.85 7.53,13C4.46,13 2,10.54 2,7.5A5.5,5.5 0 0,1 7.5,2M19.07,3.5L20.5,4.93L4.93,20.5L3.5,19.07L19.07,3.5M12.89,5.93L11.41,5L9.97,6L10.39,4.3L9,3.24L10.75,3.12L11.33,1.47L12,3.1L13.73,3.13L12.38,4.26L12.89,5.93M9.59,9.54L8.43,8.81L7.31,9.59L7.65,8.27L6.56,7.44L7.92,7.35L8.37,6.06L8.88,7.33L10.24,7.36L9.19,8.23L9.59,9.54M19,13.5A5.5,5.5 0 0,1 13.5,19C12.28,19 11.15,18.6 10.24,17.93L17.93,10.24C18.6,11.15 19,12.28 19,13.5M14.6,20.08L17.37,18.93L17.13,22.28L14.6,20.08M18.93,17.38L20.08,14.61L22.28,17.15L18.93,17.38M20.08,12.42L18.94,9.64L22.28,9.88L20.08,12.42M9.63,18.93L12.4,20.08L9.87,22.27L9.63,18.93Z"/>
  </symbol>

  <symbol id="discord" viewBox="0 0 24 24">
    <title>discord</title>
    <path d="M20.317 4.3698a19.7913 19.7913 0 00-4.8851-1.5152.0741.0741 0 00-.0785.0371c-.211.3753-.4447.8648-.6083 1.2495-1.8447-.2762-3.68-.2762-5.4868 0-.1636-.3933-.4058-.8742-.6177-1.2495a.077.077 0 00-.0785-.037 19.7363 19.7363 0 00-4.8852 1.515.0699.0699 0 00-.0321.0277C.5334 9.0458-.319 13.5799.0992 18.0578a.0824.0824 0 00.0312.0561c2.0528 1.5076 4.0413 2.4228 5.9929 3.0294a.0777.0777 0 00.0842-.0276c.4616-.6304.8731-1.2952 1.226-1.9942a.076.076 0 00-.0416-.1057c-.6528-.2476-1.2743-.5495-1.8722-.8923a.077.077 0 01-.0076-.1277c.1258-.0943.2517-.1923.3718-.2914a.0743.0743 0 01.0776-.0105c3.9278 1.7933 8.18 1.7933 12.0614 0a.0739.0739 0 01.0785.0095c.1202.099.246.1981.3728.2924a.077.077 0 01-.0066.1276 12.2986 12.2986 0 01-1.873.8914.0766.0766 0 00-.0407.1067c.3604.698.7719 1.3628 1.225 1.9932a.076.076 0 00.0842.0286c1.961-.6067 3.9495-1.5219 6.0023-3.0294a.077.077 0 00.0313-.0552c.5004-5.177-.8382-9.6739-3.5485-13.6604a.061.061 0 00-.0312-.0286zM8.02 15.3312c-1.1825 0-2.1569-1.0857-2.1569-2.419 0-1.3332.9555-2.4189 2.157-2.4189 1.2108 0 2.1757 1.0952 2.1568 2.419 0 1.3332-.9555 2.4189-2.1569 2.4189zm7.9748 0c-1.1825 0-2.1569-1.0857-2.1569-2.419 0-1.3332.9554-2.4189 2.1569-2.4189 1.2108 0 2.1757 1.0952 2.1568 2.419 0 1.3332-.946 2.4189-2.1568 2.4189Z"/>
  </symbol>

  <symbol id="docs" viewBox="0 0 24 24">
    <title>Shoko Docs</title>
    <path d="M19 1L14 6V17L19 12.5V1M21 5V18.5C19.9 18.15 18.7 18 17.5 18C15.8 18 13.35 18.65 12 19.5V6C10.55 4.9 8.45 4.5 6.5 4.5C4.55 4.5 2.45 4.9 1 6V20.65C1 20.9 1.25 21.15 1.5 21.15C1.6 21.15 1.65 21.1 1.75 21.1C3.1 20.45 5.05 20 6.5 20C8.45 20 10.55 20.4 12 21.5C13.35 20.65 15.8 20 17.5 20C19.15 20 20.85 20.3 22.25 21.05C22.35 21.1 22.4 21.1 22.5 21.1C22.75 21.1 23 20.85 23 20.6V6C22.4 5.55 21.75 5.25 21 5M10 18.41C8.75 18.09 7.5 18 6.5 18C5.44 18 4.18 18.19 3 18.5V7.13C3.91 6.73 5.14 6.5 6.5 6.5C7.86 6.5 9.09 6.73 10 7.13V18.41Z"/>
  </symbol>

  <symbol id="github" viewBox="0 0 24 24">
    <title>Github</title>
    <path d="M12,2A10,10 0 0,0 2,12C2,16.42 4.87,20.17 8.84,21.5C9.34,21.58 9.5,21.27 9.5,21C9.5,20.77 9.5,20.14 9.5,19.31C6.73,19.91 6.14,17.97 6.14,17.97C5.68,16.81 5.03,16.5 5.03,16.5C4.12,15.88 5.1,15.9 5.1,15.9C6.1,15.97 6.63,16.93 6.63,16.93C7.5,18.45 8.97,18 9.54,17.76C9.63,17.11 9.89,16.67 10.17,16.42C7.95,16.17 5.62,15.31 5.62,11.5C5.62,10.39 6,9.5 6.65,8.79C6.55,8.54 6.2,7.5 6.75,6.15C6.75,6.15 7.59,5.88 9.5,7.17C10.29,6.95 11.15,6.84 12,6.84C12.85,6.84 13.71,6.95 14.5,7.17C16.41,5.88 17.25,6.15 17.25,6.15C17.8,7.5 17.45,8.54 17.35,8.79C18,9.5 18.38,10.39 18.38,11.5C18.38,15.32 16.04,16.16 13.81,16.41C14.17,16.72 14.5,17.33 14.5,18.26C14.5,19.6 14.5,20.68 14.5,21C14.5,21.27 14.66,21.59 15.17,21.5C19.14,20.16 22,16.42 22,12A10,10 0 0,0 12,2Z"/>
  </symbol>

  <!--Loading spinner-->
  <symbol id="loading" viewBox="0 0 24 24">
    <title>Loading</title>
    <path d="M12,4V2A10,10 0 0,0 2,12H4A8,8 0 0,1 12,4Z"/>
  </symbol>
</svg> 